<?xml version="1.0" encoding="iso-8859-1"?>
<!-- Generator: Adobe Illustrator 19.0.0, SVG Export Plug-In . SVG Version: 6.00 Build 0)  -->
<svg version="1.1" id="Capa_1" xmlns="http://www.w3.org/2000/svg" xmlns:xlink="http://www.w3.org/1999/xlink" x="0px" y="0px"
	 viewBox="0 0 511.424 511.424" style="enable-background:new 0 0 511.424 511.424;" xml:space="preserve">
<g>
	<g>
		<path d="M349.368,280.176l-11.312-11.312l-66.192,66.184c-4.76-2.816-10.24-4.536-16.152-4.536c-17.648,0-32,14.352-32,32
			s14.352,32,32,32s32-14.352,32-32c0-5.92-1.728-11.392-4.536-16.152L349.368,280.176z M255.712,378.512c-8.824,0-16-7.176-16-16
			c0-8.824,7.176-16,16-16c8.824,0,16,7.176,16,16C271.712,371.336,264.536,378.512,255.712,378.512z"/>
	</g>
</g>
<g>
	<g>
		<rect x="175.712" y="426.512" width="160" height="16"/>
	</g>
</g>
<g>
	<g>
		<rect x="207.712" y="458.512" width="96" height="16"/>
	</g>
</g>
<g>
	<g>
		<path d="M255.712,162.512c-110.28,0-200,89.72-200,200c0,53.544,20.896,103.856,58.832,141.664l2.344,2.336h277.64l2.344-2.336
			c37.944-37.808,58.84-88.12,58.84-141.664C455.712,252.232,365.992,162.512,255.712,162.512z M387.88,490.512H123.544
			c-33.448-34.504-51.832-79.832-51.832-128c0-101.464,82.544-184,184-184s184,82.536,184,184
			C439.712,410.68,421.328,456.008,387.88,490.512z"/>
	</g>
</g>
<g>
	<g>
		<polygon points="255.712,4.912 176,114.512 215.712,114.512 215.712,146.512 231.712,146.512 231.712,98.512 207.424,98.512 
			255.712,32.112 304,98.512 279.712,98.512 279.712,146.512 295.712,146.512 295.712,114.512 335.424,114.512 		"/>
	</g>
</g>
<g>
	<g>
		<polygon points="431.712,36.912 352,146.512 391.712,146.512 391.712,170.512 407.712,170.512 407.712,130.512 383.424,130.512 
			431.712,64.112 480,130.512 455.712,130.512 455.712,258.512 471.712,258.512 471.712,146.512 511.424,146.512 		"/>
	</g>
</g>
<g>
	<g>
		<polygon points="79.712,36.912 0,146.512 39.712,146.512 39.712,258.512 55.712,258.512 55.712,130.512 31.424,130.512 
			79.712,64.112 128,130.512 103.712,130.512 103.712,170.512 119.712,170.512 119.712,146.512 159.424,146.512 		"/>
	</g>
</g>
<g>
	<g>
		<rect x="39.712" y="274.512" width="16" height="16"/>
	</g>
</g>
<g>
	<g>
		<rect x="103.712" y="186.512" width="16" height="16"/>
	</g>
</g>
<g>
	<g>
		<rect x="391.712" y="186.512" width="16" height="16"/>
	</g>
</g>
<g>
	<g>
		<rect x="455.712" y="274.512" width="16" height="16"/>
	</g>
</g>
<g>
	<g>
		<rect x="319.712" y="458.512" width="16" height="16"/>
	</g>
</g>
<g>
	<g>
		<rect x="175.712" y="458.512" width="16" height="16"/>
	</g>
</g>
<g>
	<g>
		<path d="M255.712,194.512c-92.64,0-168,75.368-168,168c0,36.544,11.696,71.416,33.832,100.816l12.784-9.624
			c-20.032-26.608-30.616-58.136-30.616-91.192c0-83.816,68.184-152,152-152s152,68.184,152,152
			c0,33.056-10.584,64.584-30.608,91.184l12.784,9.624c22.128-29.392,33.824-64.264,33.824-100.808
			C423.712,269.88,348.352,194.512,255.712,194.512z"/>
	</g>
</g>
<g>
</g>
<g>
</g>
<g>
</g>
<g>
</g>
<g>
</g>
<g>
</g>
<g>
</g>
<g>
</g>
<g>
</g>
<g>
</g>
<g>
</g>
<g>
</g>
<g>
</g>
<g>
</g>
<g>
</g>
</svg>
